<svg width="20" height="16" viewBox="0 0 20 16" fill="none" xmlns="http://www.w3.org/2000/svg">
<g id="X Icon">
<g id="Group 237456">
<path id="Vector (Stroke)" fill-rule="evenodd" clip-rule="evenodd" d="M0.987761 7.94417C1.00394 7.90596 1.02307 7.86158 1.04516 7.8115C1.13139 7.61602 1.26262 7.33428 1.44037 6.99508C1.79644 6.31556 2.33606 5.41145 3.07013 4.50972C4.54296 2.7005 6.75149 0.954023 9.79731 0.954023C12.8431 0.954023 15.0514 2.70049 16.524 4.50969C17.258 5.41142 17.7975 6.31552 18.1535 6.99504C18.3312 7.33424 18.4624 7.61598 18.5486 7.81146C18.5704 7.86096 18.5894 7.90491 18.6054 7.94282C18.5904 7.97961 18.5728 8.02207 18.5525 8.06977C18.4702 8.26298 18.3445 8.54163 18.1728 8.87717C17.8289 9.54941 17.3037 10.4439 16.579 11.3361C15.1273 13.1234 12.9138 14.8585 9.77482 14.8585C6.63633 14.8585 4.43419 13.1239 2.99379 11.3375C2.27463 10.4456 1.75493 9.55127 1.41508 8.87919C1.24545 8.54372 1.1214 8.26515 1.04032 8.07199C1.02014 8.02391 1.00263 7.98116 0.987761 7.94417ZM19.1179 7.93921C19.5653 8.10166 19.5652 8.10186 19.5651 8.1021L19.5649 8.1027L19.5643 8.10442L19.5623 8.10986C19.5606 8.11437 19.5583 8.12064 19.5553 8.12862C19.5493 8.14457 19.5406 8.16735 19.5292 8.1965C19.5064 8.25479 19.4727 8.33859 19.4277 8.44426C19.3378 8.65554 19.2026 8.95473 19.0195 9.31258C18.6539 10.0271 18.0941 10.9817 17.3169 11.9386C15.7647 13.8494 13.3066 15.8125 9.77482 15.8125C6.24248 15.8125 3.79512 13.8489 2.25372 11.9372C1.48197 10.9801 0.927707 10.0253 0.566303 9.31056C0.385311 8.95263 0.251918 8.65337 0.163209 8.44204C0.118838 8.33633 0.0855949 8.2525 0.0631217 8.19419C0.0518836 8.16503 0.043334 8.14224 0.0374282 8.12627C0.0344752 8.11829 0.0321827 8.11201 0.0305452 8.10749L0.0285793 8.10205L0.0279634 8.10033L0.0277469 8.09972C0.0276641 8.09949 0.0275914 8.09928 0.475807 7.93921L0.0275914 8.09928C-0.0103423 7.99253 -0.00912625 7.87572 0.0310215 7.76979L0.475807 7.93921C0.0310215 7.76979 0.0310954 7.76959 0.0311801 7.76937L0.031404 7.76878L0.0320484 7.76709L0.0341242 7.76169C0.0358583 7.7572 0.0382937 7.75093 0.0414337 7.74294C0.0477133 7.72696 0.0568131 7.7041 0.0687596 7.67482C0.0926497 7.61626 0.127943 7.53197 0.174855 7.42563C0.268645 7.21302 0.409081 6.91178 0.597927 6.5514C0.975026 5.83176 1.54826 4.87032 2.33288 3.9065C3.89743 1.98462 6.34966 9.53674e-07 9.79731 9.53674e-07C13.245 9.53674e-07 15.697 1.98463 17.2613 3.90653C18.0458 4.87035 18.619 5.83179 18.996 6.55143C19.1848 6.91182 19.3252 7.21306 19.419 7.42567C19.4659 7.53202 19.5011 7.61631 19.525 7.67486C19.537 7.70414 19.5461 7.727 19.5523 7.74298C19.5548 7.74917 19.5568 7.75433 19.5584 7.75843L19.5596 7.76173L19.5617 7.76714L19.5626 7.76941C19.5627 7.76964 19.5627 7.76983 19.1179 7.93921ZM19.1179 7.93921L19.5627 7.76983C19.6032 7.87657 19.6041 7.99431 19.5653 8.10166L19.1179 7.93921Z" fill="#677185"/>
<path id="Vector (Stroke)_2" fill-rule="evenodd" clip-rule="evenodd" d="M9.79688 10.7093C8.31917 10.7093 7.12125 9.45432 7.12125 7.90625C7.12125 6.35818 8.31917 5.10322 9.79688 5.10322C11.2746 5.10322 12.4725 6.35818 12.4725 7.90625C12.4725 9.45432 11.2746 10.7093 9.79688 10.7093ZM6.1875 7.90625C6.1875 9.99457 7.80347 11.6875 9.79688 11.6875C11.7903 11.6875 13.4062 9.99457 13.4062 7.90625C13.4062 5.81792 11.7903 4.125 9.79688 4.125C7.80347 4.125 6.1875 5.81792 6.1875 7.90625Z" fill="#677185"/>
</g>
</g>
</svg>
